{
	"patcher" : 	{
		"fileversion" : 1,
		"appversion" : 		{
			"major" : 8,
			"minor" : 5,
			"revision" : 4,
			"architecture" : "x64",
			"modernui" : 1
		}
,
		"classnamespace" : "box",
		"rect" : [ 1318.0, 158.0, 677.0, 560.0 ],
		"bglocked" : 0,
		"openinpresentation" : 0,
		"default_fontsize" : 12.0,
		"default_fontface" : 0,
		"default_fontname" : "Arial",
		"gridonopen" : 1,
		"gridsize" : [ 15.0, 15.0 ],
		"gridsnaponopen" : 1,
		"objectsnaponopen" : 1,
		"statusbarvisible" : 2,
		"toolbarvisible" : 1,
		"lefttoolbarpinned" : 0,
		"toptoolbarpinned" : 0,
		"righttoolbarpinned" : 0,
		"bottomtoolbarpinned" : 0,
		"toolbars_unpinned_last_save" : 0,
		"tallnewobj" : 0,
		"boxanimatetime" : 200,
		"enablehscroll" : 1,
		"enablevscroll" : 1,
		"devicewidth" : 0.0,
		"description" : "",
		"digest" : "",
		"tags" : "",
		"style" : "",
		"subpatcher_template" : "",
		"assistshowspatchername" : 0,
		"boxes" : [ 			{
				"box" : 				{
					"id" : "obj-701",
					"maxclass" : "newobj",
					"numinlets" : 2,
					"numoutlets" : 1,
					"outlettype" : [ "signal" ],
					"patching_rect" : [ 362.609140329017805, 370.194581133438987, 100.0, 22.0 ],
					"text" : "*~"
				}

			}
, 			{
				"box" : 				{
					"id" : "obj-700",
					"linecount" : 2,
					"maxclass" : "newobj",
					"numinlets" : 2,
					"numoutlets" : 1,
					"outlettype" : [ "multichannelsignal" ],
					"patching_rect" : [ 345.377256803169416, 543.706427795006675, 100.0, 35.0 ],
					"text" : "mc.combine~ 2 @chans 5"
				}

			}
, 			{
				"box" : 				{
					"id" : "obj-695",
					"maxclass" : "newobj",
					"numinlets" : 2,
					"numoutlets" : 1,
					"outlettype" : [ "multichannelsignal" ],
					"patching_rect" : [ 221.771457791328316, 373.262569171502037, 100.0, 22.0 ],
					"text" : "mc.*~"
				}

			}
, 			{
				"box" : 				{
					"id" : "obj-184",
					"maxclass" : "newobj",
					"numinlets" : 1,
					"numoutlets" : 3,
					"outlettype" : [ "multichannelsignal", "multichannelsignal", "multichannelsignal" ],
					"patching_rect" : [ 44.176638007163888, 176.449276208877563, 102.0, 22.0 ],
					"text" : "mc.separate~ 4 1"
				}

			}
, 			{
				"box" : 				{
					"comment" : "",
					"id" : "obj-709",
					"index" : 2,
					"maxclass" : "inlet",
					"numinlets" : 0,
					"numoutlets" : 1,
					"outlettype" : [ "signal" ],
					"patching_rect" : [ 203.62316006886283, 124.057911613106626, 30.0, 30.0 ]
				}

			}
, 			{
				"box" : 				{
					"comment" : "",
					"id" : "obj-710",
					"index" : 1,
					"maxclass" : "inlet",
					"numinlets" : 0,
					"numoutlets" : 1,
					"outlettype" : [ "multichannelsignal" ],
					"patching_rect" : [ 44.17665373309319, 116.449216106057065, 30.0, 30.0 ]
				}

			}
, 			{
				"box" : 				{
					"comment" : "",
					"id" : "obj-711",
					"index" : 3,
					"maxclass" : "inlet",
					"numinlets" : 0,
					"numoutlets" : 1,
					"outlettype" : [ "signal" ],
					"patching_rect" : [ 378.65722396912372, 150.144868352532285, 30.0, 30.0 ]
				}

			}
, 			{
				"box" : 				{
					"comment" : "",
					"id" : "obj-712",
					"index" : 1,
					"maxclass" : "outlet",
					"numinlets" : 1,
					"numoutlets" : 0,
					"patching_rect" : [ 345.377256803169416, 670.344152978119837, 30.0, 30.0 ]
				}

			}
 ],
		"lines" : [ 			{
				"patchline" : 				{
					"destination" : [ "obj-695", 1 ],
					"source" : [ "obj-184", 0 ]
				}

			}
, 			{
				"patchline" : 				{
					"destination" : [ "obj-701", 1 ],
					"source" : [ "obj-184", 1 ]
				}

			}
, 			{
				"patchline" : 				{
					"destination" : [ "obj-700", 0 ],
					"source" : [ "obj-695", 0 ]
				}

			}
, 			{
				"patchline" : 				{
					"destination" : [ "obj-712", 0 ],
					"source" : [ "obj-700", 0 ]
				}

			}
, 			{
				"patchline" : 				{
					"destination" : [ "obj-700", 1 ],
					"source" : [ "obj-701", 0 ]
				}

			}
, 			{
				"patchline" : 				{
					"destination" : [ "obj-695", 0 ],
					"source" : [ "obj-709", 0 ]
				}

			}
, 			{
				"patchline" : 				{
					"destination" : [ "obj-184", 0 ],
					"source" : [ "obj-710", 0 ]
				}

			}
, 			{
				"patchline" : 				{
					"destination" : [ "obj-701", 0 ],
					"source" : [ "obj-711", 0 ]
				}

			}
 ]
	}

}
