{
	"patcher" : 	{
		"fileversion" : 1,
		"appversion" : 		{
			"major" : 8,
			"minor" : 5,
			"revision" : 4,
			"architecture" : "x64",
			"modernui" : 1
		}
,
		"classnamespace" : "box",
		"rect" : [ 67.0, 138.0, 1535.0, 1023.0 ],
		"bglocked" : 0,
		"openinpresentation" : 0,
		"default_fontsize" : 13.0,
		"default_fontface" : 0,
		"default_fontname" : "Andale Mono",
		"gridonopen" : 1,
		"gridsize" : [ 15.0, 15.0 ],
		"gridsnaponopen" : 1,
		"objectsnaponopen" : 1,
		"statusbarvisible" : 2,
		"toolbarvisible" : 1,
		"lefttoolbarpinned" : 0,
		"toptoolbarpinned" : 0,
		"righttoolbarpinned" : 0,
		"bottomtoolbarpinned" : 0,
		"toolbars_unpinned_last_save" : 0,
		"tallnewobj" : 0,
		"boxanimatetime" : 200,
		"enablehscroll" : 1,
		"enablevscroll" : 1,
		"devicewidth" : 0.0,
		"description" : "",
		"digest" : "",
		"tags" : "",
		"style" : "Neudel_Dark_Mono",
		"subpatcher_template" : "",
		"assistshowspatchername" : 0,
		"boxes" : [ 			{
				"box" : 				{
					"id" : "obj-17",
					"maxclass" : "newobj",
					"numinlets" : 0,
					"numoutlets" : 1,
					"outlettype" : [ "" ],
					"patching_rect" : [ 177.724286000000006, 72.0, 100.0, 23.0 ],
					"style" : "Receive",
					"text" : "r reset"
				}

			}
, 			{
				"box" : 				{
					"id" : "obj-13",
					"maxclass" : "newobj",
					"numinlets" : 0,
					"numoutlets" : 1,
					"outlettype" : [ "" ],
					"patching_rect" : [ 473.180280790931647, 101.0, 100.0, 23.0 ],
					"style" : "Receive",
					"text" : "r #1_tick"
				}

			}
, 			{
				"box" : 				{
					"id" : "obj-12",
					"maxclass" : "newobj",
					"numinlets" : 2,
					"numoutlets" : 2,
					"outlettype" : [ "", "" ],
					"patching_rect" : [ 325.724285529262488, 149.0, 100.0, 23.0 ],
					"text" : "buddy"
				}

			}
, 			{
				"box" : 				{
					"id" : "obj-6",
					"linecount" : 5,
					"maxclass" : "comment",
					"numinlets" : 1,
					"numoutlets" : 0,
					"patching_rect" : [ 958.0, 734.0, 268.0, 141.0 ],
					"style" : "ToDo",
					"text" : "HOLD PITCH MESSAGE, BANG WITH TICK, THEN DELAY -> Separate make notes"
				}

			}
, 			{
				"box" : 				{
					"id" : "obj-15",
					"maxclass" : "newobj",
					"numinlets" : 1,
					"numoutlets" : 1,
					"outlettype" : [ "" ],
					"patching_rect" : [ 212.0, 611.0, 100.0, 23.0 ],
					"text" : "loadmess 0"
				}

			}
, 			{
				"box" : 				{
					"id" : "obj-14",
					"maxclass" : "message",
					"numinlets" : 2,
					"numoutlets" : 1,
					"outlettype" : [ "" ],
					"patching_rect" : [ 301.724285529262488, 666.015533804893494, 124.0, 23.0 ],
					"text" : "repeatmode $1"
				}

			}
, 			{
				"box" : 				{
					"id" : "obj-10",
					"maxclass" : "newobj",
					"numinlets" : 1,
					"numoutlets" : 0,
					"patching_rect" : [ 682.175996065139771, 793.0, 126.0, 23.0 ],
					"style" : "Print",
					"text" : "s #1_MIDI_pack"
				}

			}
, 			{
				"box" : 				{
					"format" : 6,
					"id" : "obj-11",
					"maxclass" : "flonum",
					"numinlets" : 1,
					"numoutlets" : 2,
					"outlettype" : [ "", "bang" ],
					"parameter_enable" : 0,
					"patching_rect" : [ 917.756172645741572, 86.90514349937439, 50.0, 23.0 ]
				}

			}
, 			{
				"box" : 				{
					"id" : "obj-9",
					"maxclass" : "number",
					"numinlets" : 1,
					"numoutlets" : 2,
					"outlettype" : [ "", "bang" ],
					"parameter_enable" : 0,
					"patching_rect" : [ 958.0, 218.0, 50.0, 23.0 ]
				}

			}
, 			{
				"box" : 				{
					"format" : 6,
					"id" : "obj-7",
					"maxclass" : "flonum",
					"numinlets" : 1,
					"numoutlets" : 2,
					"outlettype" : [ "", "bang" ],
					"parameter_enable" : 0,
					"patching_rect" : [ 760.0, 174.0, 50.0, 23.0 ]
				}

			}
, 			{
				"box" : 				{
					"id" : "obj-5",
					"maxclass" : "number",
					"numinlets" : 1,
					"numoutlets" : 2,
					"outlettype" : [ "", "bang" ],
					"parameter_enable" : 0,
					"patching_rect" : [ 707.175996065139771, 225.0, 50.0, 23.0 ]
				}

			}
, 			{
				"box" : 				{
					"id" : "obj-129",
					"maxclass" : "newobj",
					"numinlets" : 1,
					"numoutlets" : 1,
					"outlettype" : [ "" ],
					"patching_rect" : [ 917.756172645741572, 168.494410276412964, 100.0, 23.0 ],
					"style" : "SW",
					"text" : "sw ArpTime"
				}

			}
, 			{
				"box" : 				{
					"id" : "obj-3",
					"maxclass" : "newobj",
					"numinlets" : 2,
					"numoutlets" : 1,
					"outlettype" : [ "float" ],
					"patching_rect" : [ 836.756172645741572, 214.999982357025146, 100.0, 23.0 ],
					"text" : "!/ 1."
				}

			}
, 			{
				"box" : 				{
					"id" : "obj-1",
					"maxclass" : "newobj",
					"numinlets" : 0,
					"numoutlets" : 1,
					"outlettype" : [ "" ],
					"patching_rect" : [ 733.327209637767737, 45.280240952968597, 110.0, 23.0 ],
					"style" : "Receive",
					"text" : "r ArpModRange"
				}

			}
, 			{
				"box" : 				{
					"id" : "obj-191",
					"maxclass" : "newobj",
					"numinlets" : 0,
					"numoutlets" : 1,
					"outlettype" : [ "" ],
					"patching_rect" : [ 638.175996065139771, 86.90514349937439, 119.0, 23.0 ],
					"style" : "Receive",
					"text" : "r ArpModEase"
				}

			}
, 			{
				"box" : 				{
					"id" : "obj-98",
					"maxclass" : "newobj",
					"numinlets" : 1,
					"numoutlets" : 1,
					"outlettype" : [ "" ],
					"patching_rect" : [ 836.756172645741572, 133.216845393180847, 210.00000524520874, 23.0 ],
					"text" : "ease 0.38 0.95 0.5 2"
				}

			}
, 			{
				"box" : 				{
					"id" : "obj-77",
					"maxclass" : "newobj",
					"numinlets" : 0,
					"numoutlets" : 1,
					"outlettype" : [ "" ],
					"patching_rect" : [ 879.362521160298456, 41.071428179740906, 133.0, 23.0 ],
					"style" : "Receive",
					"text" : "r #1_MeanChi"
				}

			}
, 			{
				"box" : 				{
					"id" : "obj-134",
					"maxclass" : "newobj",
					"numinlets" : 1,
					"numoutlets" : 0,
					"patching_rect" : [ 428.203349487192099, 865.397979378700256, 110.0, 23.0 ],
					"style" : "Send",
					"text" : "s #1_MIDI"
				}

			}
, 			{
				"box" : 				{
					"id" : "obj-132",
					"maxclass" : "newobj",
					"numinlets" : 1,
					"numoutlets" : 1,
					"outlettype" : [ "" ],
					"patching_rect" : [ 662.302165613777106, 560.890422773750288, 100.0, 23.0 ],
					"style" : "SW",
					"text" : "sw Vel"
				}

			}
, 			{
				"box" : 				{
					"id" : "obj-39",
					"maxclass" : "newobj",
					"numinlets" : 0,
					"numoutlets" : 1,
					"outlettype" : [ "" ],
					"patching_rect" : [ 803.773677454597419, 557.403677463531494, 100.0, 23.0 ],
					"style" : "Receive",
					"text" : "r VeloVary"
				}

			}
, 			{
				"box" : 				{
					"id" : "obj-37",
					"maxclass" : "newobj",
					"numinlets" : 0,
					"numoutlets" : 1,
					"outlettype" : [ "" ],
					"patching_rect" : [ 942.039315746433203, 249.582054018974304, 100.0, 23.0 ],
					"style" : "Receive",
					"text" : "r ArpVary"
				}

			}
, 			{
				"box" : 				{
					"id" : "obj-2",
					"maxclass" : "newobj",
					"numinlets" : 0,
					"numoutlets" : 1,
					"outlettype" : [ "" ],
					"patching_rect" : [ 675.202144847518866, 666.015533804893494, 141.0, 23.0 ],
					"style" : "Receive",
					"text" : "r #1_duration"
				}

			}
, 			{
				"box" : 				{
					"id" : "obj-177",
					"maxclass" : "newobj",
					"numinlets" : 0,
					"numoutlets" : 1,
					"outlettype" : [ "" ],
					"patching_rect" : [ 325.724285529262488, 41.071428179740906, 141.0, 23.0 ],
					"style" : "Send",
					"text" : "r #1_Arpeggio"
				}

			}
, 			{
				"box" : 				{
					"id" : "obj-446",
					"maxclass" : "newobj",
					"numinlets" : 1,
					"numoutlets" : 2,
					"outlettype" : [ "int", "bang" ],
					"patching_rect" : [ 535.88351915896601, 493.562974691390991, 70.588234066963196, 23.0 ],
					"text" : "t i b"
				}

			}
, 			{
				"box" : 				{
					"id" : "obj-336",
					"maxclass" : "newobj",
					"numinlets" : 3,
					"numoutlets" : 1,
					"outlettype" : [ "" ],
					"patching_rect" : [ 666.955421566963196, 615.17613835373686, 126.0, 23.0 ],
					"style" : "Patcher blue",
					"text" : "Variator #1"
				}

			}
, 			{
				"box" : 				{
					"id" : "obj-331",
					"maxclass" : "newobj",
					"numinlets" : 1,
					"numoutlets" : 0,
					"patching_rect" : [ 85.714284896850586, 284.750829100608826, 110.0, 23.0 ],
					"style" : "Print",
					"text" : "s #1_chords"
				}

			}
, 			{
				"box" : 				{
					"id" : "obj-464",
					"maxclass" : "newobj",
					"numinlets" : 3,
					"numoutlets" : 1,
					"outlettype" : [ "" ],
					"patching_rect" : [ 863.696112559444373, 325.301641643047333, 126.0, 23.0 ],
					"style" : "Patcher blue",
					"text" : "Variator #1"
				}

			}
, 			{
				"box" : 				{
					"id" : "obj-463",
					"maxclass" : "newobj",
					"numinlets" : 3,
					"numoutlets" : 1,
					"outlettype" : [ "" ],
					"patching_rect" : [ 731.812058256275122, 325.301641643047333, 126.0, 23.0 ],
					"style" : "Patcher blue",
					"text" : "Variator #1"
				}

			}
, 			{
				"box" : 				{
					"id" : "obj-462",
					"maxclass" : "newobj",
					"numinlets" : 3,
					"numoutlets" : 1,
					"outlettype" : [ "" ],
					"patching_rect" : [ 594.108332501060431, 323.201105833053589, 126.0, 23.0 ],
					"style" : "Patcher blue",
					"text" : "Variator #1"
				}

			}
, 			{
				"box" : 				{
					"fontname" : "Menlo Regular",
					"id" : "obj-300",
					"maxclass" : "message",
					"numinlets" : 2,
					"numoutlets" : 1,
					"outlettype" : [ "" ],
					"patching_rect" : [ 426.203349487192099, 810.083225965499878, 157.0, 24.0 ],
					"text" : "midievent 144 $1 $2"
				}

			}
, 			{
				"box" : 				{
					"fontname" : "Menlo Regular",
					"id" : "obj-302",
					"maxclass" : "newobj",
					"numinlets" : 2,
					"numoutlets" : 1,
					"outlettype" : [ "" ],
					"patching_rect" : [ 428.149980233318274, 748.623097193630201, 40.0, 24.0 ],
					"text" : "pack"
				}

			}
, 			{
				"box" : 				{
					"fontname" : "Menlo Regular",
					"id" : "obj-303",
					"maxclass" : "newobj",
					"numinlets" : 3,
					"numoutlets" : 2,
					"outlettype" : [ "float", "float" ],
					"patching_rect" : [ 428.149980233318274, 708.101359141262037, 190.060601115226746, 24.0 ],
					"text" : "makenote 100 1000"
				}

			}
, 			{
				"box" : 				{
					"id" : "obj-328",
					"maxclass" : "newobj",
					"numinlets" : 1,
					"numoutlets" : 4,
					"outlettype" : [ "int", "int", "int", "int" ],
					"patching_rect" : [ 325.706940398818915, 192.134038090705872, 229.787233114242554, 23.0 ],
					"text" : "unpack 0 0 0 0"
				}

			}
, 			{
				"box" : 				{
					"id" : "obj-324",
					"maxclass" : "newobj",
					"numinlets" : 2,
					"numoutlets" : 2,
					"outlettype" : [ "", "" ],
					"patching_rect" : [ 325.724285529262488, 86.90514349937439, 100.0, 23.0 ],
					"text" : "zl.filter 0"
				}

			}
, 			{
				"box" : 				{
					"id" : "obj-229",
					"maxclass" : "newobj",
					"numinlets" : 2,
					"numoutlets" : 1,
					"outlettype" : [ "int" ],
					"patching_rect" : [ 845.514295981532996, 364.517469346523285, 32.0, 23.0 ],
					"text" : "* 3"
				}

			}
, 			{
				"box" : 				{
					"id" : "obj-228",
					"maxclass" : "newobj",
					"numinlets" : 2,
					"numoutlets" : 1,
					"outlettype" : [ "int" ],
					"patching_rect" : [ 730.296906874782508, 364.517469346523285, 32.0, 23.0 ],
					"text" : "* 2"
				}

			}
, 			{
				"box" : 				{
					"id" : "obj-184",
					"maxclass" : "newobj",
					"numinlets" : 2,
					"numoutlets" : 1,
					"outlettype" : [ "" ],
					"patching_rect" : [ 556.536551223403876, 380.486210346221924, 48.0, 23.0 ],
					"text" : "pipe"
				}

			}
, 			{
				"box" : 				{
					"id" : "obj-176",
					"maxclass" : "newobj",
					"numinlets" : 2,
					"numoutlets" : 1,
					"outlettype" : [ "" ],
					"patching_rect" : [ 702.367694244987433, 398.009958863258362, 48.0, 23.0 ],
					"text" : "pipe"
				}

			}
, 			{
				"box" : 				{
					"id" : "obj-155",
					"maxclass" : "newobj",
					"numinlets" : 2,
					"numoutlets" : 1,
					"outlettype" : [ "" ],
					"patching_rect" : [ 815.410934732562964, 403.91456013917923, 48.0, 23.0 ],
					"text" : "pipe"
				}

			}
, 			{
				"box" : 				{
					"id" : "obj-16",
					"maxclass" : "message",
					"numinlets" : 2,
					"numoutlets" : 1,
					"outlettype" : [ "" ],
					"patching_rect" : [ 206.724286000000006, 113.0, 71.0, 23.0 ],
					"text" : "clear"
				}

			}
 ],
		"lines" : [ 			{
				"patchline" : 				{
					"destination" : [ "obj-98", 0 ],
					"source" : [ "obj-1", 0 ]
				}

			}
, 			{
				"patchline" : 				{
					"destination" : [ "obj-328", 0 ],
					"order" : 0,
					"source" : [ "obj-12", 0 ]
				}

			}
, 			{
				"patchline" : 				{
					"destination" : [ "obj-331", 0 ],
					"order" : 1,
					"source" : [ "obj-12", 0 ]
				}

			}
, 			{
				"patchline" : 				{
					"destination" : [ "obj-3", 1 ],
					"order" : 1,
					"source" : [ "obj-129", 0 ]
				}

			}
, 			{
				"patchline" : 				{
					"destination" : [ "obj-9", 0 ],
					"order" : 0,
					"source" : [ "obj-129", 0 ]
				}

			}
, 			{
				"patchline" : 				{
					"destination" : [ "obj-12", 1 ],
					"source" : [ "obj-13", 0 ]
				}

			}
, 			{
				"patchline" : 				{
					"destination" : [ "obj-336", 0 ],
					"source" : [ "obj-132", 0 ]
				}

			}
, 			{
				"patchline" : 				{
					"destination" : [ "obj-303", 0 ],
					"source" : [ "obj-14", 0 ]
				}

			}
, 			{
				"patchline" : 				{
					"destination" : [ "obj-14", 0 ],
					"source" : [ "obj-15", 0 ]
				}

			}
, 			{
				"patchline" : 				{
					"destination" : [ "obj-446", 0 ],
					"source" : [ "obj-155", 0 ]
				}

			}
, 			{
				"patchline" : 				{
					"destination" : [ "obj-12", 0 ],
					"source" : [ "obj-16", 0 ]
				}

			}
, 			{
				"patchline" : 				{
					"destination" : [ "obj-16", 0 ],
					"source" : [ "obj-17", 0 ]
				}

			}
, 			{
				"patchline" : 				{
					"destination" : [ "obj-446", 0 ],
					"source" : [ "obj-176", 0 ]
				}

			}
, 			{
				"patchline" : 				{
					"destination" : [ "obj-324", 0 ],
					"source" : [ "obj-177", 0 ]
				}

			}
, 			{
				"patchline" : 				{
					"destination" : [ "obj-446", 0 ],
					"source" : [ "obj-184", 0 ]
				}

			}
, 			{
				"patchline" : 				{
					"destination" : [ "obj-98", 0 ],
					"source" : [ "obj-191", 0 ]
				}

			}
, 			{
				"patchline" : 				{
					"destination" : [ "obj-303", 2 ],
					"source" : [ "obj-2", 0 ]
				}

			}
, 			{
				"patchline" : 				{
					"destination" : [ "obj-176", 1 ],
					"midpoints" : [ 739.796906874782508, 388.097589492797852, 740.867694244987433, 388.097589492797852 ],
					"source" : [ "obj-228", 0 ]
				}

			}
, 			{
				"patchline" : 				{
					"destination" : [ "obj-155", 1 ],
					"midpoints" : [ 855.014295981532996, 388.097589492797852, 853.910934732562964, 388.097589492797852 ],
					"source" : [ "obj-229", 0 ]
				}

			}
, 			{
				"patchline" : 				{
					"destination" : [ "obj-462", 0 ],
					"order" : 3,
					"source" : [ "obj-3", 0 ]
				}

			}
, 			{
				"patchline" : 				{
					"destination" : [ "obj-463", 0 ],
					"order" : 1,
					"source" : [ "obj-3", 0 ]
				}

			}
, 			{
				"patchline" : 				{
					"destination" : [ "obj-464", 0 ],
					"order" : 0,
					"source" : [ "obj-3", 0 ]
				}

			}
, 			{
				"patchline" : 				{
					"destination" : [ "obj-5", 0 ],
					"order" : 2,
					"source" : [ "obj-3", 0 ]
				}

			}
, 			{
				"patchline" : 				{
					"destination" : [ "obj-134", 0 ],
					"midpoints" : [ 435.703349487192099, 837.0, 437.703349487192099, 837.0 ],
					"source" : [ "obj-300", 0 ]
				}

			}
, 			{
				"patchline" : 				{
					"destination" : [ "obj-10", 0 ],
					"order" : 0,
					"source" : [ "obj-302", 0 ]
				}

			}
, 			{
				"patchline" : 				{
					"destination" : [ "obj-300", 0 ],
					"midpoints" : [ 437.649980233318274, 774.846037745475769, 435.703349487192099, 774.846037745475769 ],
					"order" : 1,
					"source" : [ "obj-302", 0 ]
				}

			}
, 			{
				"patchline" : 				{
					"destination" : [ "obj-302", 1 ],
					"midpoints" : [ 608.71058134854502, 743.478167188556654, 458.649980233318274, 743.478167188556654 ],
					"source" : [ "obj-303", 1 ]
				}

			}
, 			{
				"patchline" : 				{
					"destination" : [ "obj-302", 0 ],
					"midpoints" : [ 437.649980233318274, 734.478167188556654, 437.649980233318274, 734.478167188556654 ],
					"source" : [ "obj-303", 0 ]
				}

			}
, 			{
				"patchline" : 				{
					"destination" : [ "obj-12", 0 ],
					"source" : [ "obj-324", 0 ]
				}

			}
, 			{
				"patchline" : 				{
					"destination" : [ "obj-155", 0 ],
					"midpoints" : [ 545.994173513061469, 361.270276427268982, 800.732668147689765, 361.270276427268982, 800.732668147689765, 387.846037745475769, 824.910934732562964, 387.846037745475769 ],
					"source" : [ "obj-328", 3 ]
				}

			}
, 			{
				"patchline" : 				{
					"destination" : [ "obj-176", 0 ],
					"midpoints" : [ 475.731762474980655, 366.846037745475769, 711.867694244987433, 366.846037745475769 ],
					"source" : [ "obj-328", 2 ]
				}

			}
, 			{
				"patchline" : 				{
					"destination" : [ "obj-184", 0 ],
					"midpoints" : [ 405.469351436899785, 374.421794652938843, 566.036551223403876, 374.421794652938843 ],
					"source" : [ "obj-328", 1 ]
				}

			}
, 			{
				"patchline" : 				{
					"destination" : [ "obj-303", 0 ],
					"midpoints" : [ 335.206940398818915, 640.097589492797852, 437.649980233318274, 640.097589492797852 ],
					"source" : [ "obj-328", 0 ]
				}

			}
, 			{
				"patchline" : 				{
					"destination" : [ "obj-303", 1 ],
					"source" : [ "obj-336", 0 ]
				}

			}
, 			{
				"patchline" : 				{
					"destination" : [ "obj-462", 2 ],
					"order" : 2,
					"source" : [ "obj-37", 0 ]
				}

			}
, 			{
				"patchline" : 				{
					"destination" : [ "obj-463", 2 ],
					"order" : 1,
					"source" : [ "obj-37", 0 ]
				}

			}
, 			{
				"patchline" : 				{
					"destination" : [ "obj-464", 2 ],
					"order" : 0,
					"source" : [ "obj-37", 0 ]
				}

			}
, 			{
				"patchline" : 				{
					"destination" : [ "obj-336", 2 ],
					"source" : [ "obj-39", 0 ]
				}

			}
, 			{
				"patchline" : 				{
					"destination" : [ "obj-303", 0 ],
					"midpoints" : [ 545.38351915896601, 640.097589492797852, 437.649980233318274, 640.097589492797852 ],
					"source" : [ "obj-446", 0 ]
				}

			}
, 			{
				"patchline" : 				{
					"destination" : [ "obj-336", 1 ],
					"midpoints" : [ 596.971753225929206, 601.097589492797852, 729.955421566963196, 601.097589492797852 ],
					"source" : [ "obj-446", 1 ]
				}

			}
, 			{
				"patchline" : 				{
					"destination" : [ "obj-184", 1 ],
					"midpoints" : [ 603.608332501060431, 367.097589492797852, 595.036551223403876, 367.097589492797852 ],
					"source" : [ "obj-462", 0 ]
				}

			}
, 			{
				"patchline" : 				{
					"destination" : [ "obj-228", 0 ],
					"midpoints" : [ 741.312058256275122, 361.097589492797852, 739.796906874782508, 361.097589492797852 ],
					"source" : [ "obj-463", 0 ]
				}

			}
, 			{
				"patchline" : 				{
					"destination" : [ "obj-229", 0 ],
					"midpoints" : [ 873.196112559444373, 361.097589492797852, 855.014295981532996, 361.097589492797852 ],
					"source" : [ "obj-464", 0 ]
				}

			}
, 			{
				"patchline" : 				{
					"destination" : [ "obj-11", 0 ],
					"order" : 0,
					"source" : [ "obj-77", 0 ]
				}

			}
, 			{
				"patchline" : 				{
					"destination" : [ "obj-98", 0 ],
					"order" : 1,
					"source" : [ "obj-77", 0 ]
				}

			}
, 			{
				"patchline" : 				{
					"destination" : [ "obj-3", 0 ],
					"order" : 0,
					"source" : [ "obj-98", 0 ]
				}

			}
, 			{
				"patchline" : 				{
					"destination" : [ "obj-7", 0 ],
					"order" : 1,
					"source" : [ "obj-98", 0 ]
				}

			}
 ],
		"styles" : [ 			{
				"name" : "Neudel_Dark_Mono",
				"default" : 				{
					"accentcolor" : [ 0.592156862745098, 0.592156862745098, 0.592156862745098, 1.0 ],
					"bgfillcolor" : 					{
						"angle" : 270.0,
						"autogradient" : 0.0,
						"color" : [ 0.482352941176471, 0.482352941176471, 0.482352941176471, 1.0 ],
						"color1" : [ 0.301961, 0.301961, 0.301961, 1.0 ],
						"color2" : [ 0.2, 0.2, 0.2, 1.0 ],
						"proportion" : 0.5,
						"type" : "color"
					}
,
					"clearcolor" : [ 1.0, 1.0, 1.0, 0.18 ],
					"color" : [ 0.682352941176471, 0.76078431372549, 0.768627450980392, 1.0 ],
					"editing_bgcolor" : [ 0.035294117647059, 0.015686274509804, 0.074509803921569, 1.0 ],
					"elementcolor" : [ 0.34902, 0.34902, 0.34902, 1.0 ],
					"fontname" : [ "Andale Mono" ],
					"fontsize" : [ 13.0 ],
					"locked_bgcolor" : [ 0.050980392156863, 0.058823529411765, 0.109803921568627, 1.0 ],
					"stripecolor" : [ 0.243137, 0.243137, 0.243137, 1.0 ],
					"textcolor" : [ 1.0, 1.0, 1.0, 1.0 ],
					"textcolor_inverse" : [ 0.980392156862745, 0.964705882352941, 0.964705882352941, 1.0 ],
					"textjustification" : [ 0 ]
				}
,
				"parentstyle" : "",
				"multi" : 0
			}
, 			{
				"name" : "Patcher blue",
				"default" : 				{
					"bgcolor" : [ 0.152941176470588, 0.188235294117647, 0.647058823529412, 1.0 ]
				}
,
				"parentstyle" : "",
				"multi" : 0
			}
, 			{
				"name" : "Print",
				"default" : 				{
					"accentcolor" : [ 0.890196078431372, 0.650980392156863, 0.058823529411765, 1.0 ],
					"bgcolor" : [ 0.2, 0.2, 0.2, 1.0 ]
				}
,
				"parentstyle" : "",
				"multi" : 0
			}
, 			{
				"name" : "Receive",
				"default" : 				{
					"accentcolor" : [ 0.796078431372549, 0.192156862745098, 0.623529411764706, 1.0 ]
				}
,
				"parentstyle" : "Send",
				"multi" : 0
			}
, 			{
				"name" : "SW",
				"default" : 				{
					"accentcolor" : [ 0.415686274509804, 0.019607843137255, 0.964705882352941, 1.0 ]
				}
,
				"parentstyle" : "",
				"multi" : 0
			}
, 			{
				"name" : "Send",
				"default" : 				{
					"accentcolor" : [ 0.152941176470588, 0.686274509803922, 0.701960784313725, 1.0 ]
				}
,
				"parentstyle" : "",
				"multi" : 0
			}
, 			{
				"name" : "ToDo",
				"default" : 				{
					"clearcolor" : [ 0.925490196078431, 0.117647058823529, 0.945098039215686, 0.18 ],
					"fontface" : [ 1 ],
					"fontsize" : [ 24.0 ],
					"textcolor" : [ 0.964705882352941, 0.03921568627451, 0.925490196078431, 1.0 ]
				}
,
				"parentstyle" : "",
				"multi" : 0
			}
 ]
	}

}
