{
	"patcher" : 	{
		"fileversion" : 1,
		"appversion" : 		{
			"major" : 8,
			"minor" : 5,
			"revision" : 4,
			"architecture" : "x64",
			"modernui" : 1
		}
,
		"classnamespace" : "box",
		"rect" : [ 762.0, 143.0, 1324.0, 927.0 ],
		"bglocked" : 0,
		"openinpresentation" : 0,
		"default_fontsize" : 13.0,
		"default_fontface" : 0,
		"default_fontname" : "Andale Mono",
		"gridonopen" : 1,
		"gridsize" : [ 15.0, 15.0 ],
		"gridsnaponopen" : 1,
		"objectsnaponopen" : 1,
		"statusbarvisible" : 2,
		"toolbarvisible" : 1,
		"lefttoolbarpinned" : 0,
		"toptoolbarpinned" : 0,
		"righttoolbarpinned" : 0,
		"bottomtoolbarpinned" : 0,
		"toolbars_unpinned_last_save" : 0,
		"tallnewobj" : 0,
		"boxanimatetime" : 200,
		"enablehscroll" : 1,
		"enablevscroll" : 1,
		"devicewidth" : 0.0,
		"description" : "",
		"digest" : "",
		"tags" : "",
		"style" : "Neudel_Dark_Mono",
		"subpatcher_template" : "",
		"assistshowspatchername" : 0,
		"boxes" : [ 			{
				"box" : 				{
					"id" : "obj-1",
					"maxclass" : "dict.view",
					"numinlets" : 1,
					"numoutlets" : 0,
					"patching_rect" : [ 417.777897642844437, 645.513530373573303, 214.765649080276489, 172.811931848526001 ]
				}

			}
, 			{
				"box" : 				{
					"id" : "obj-7",
					"maxclass" : "newobj",
					"numinlets" : 1,
					"numoutlets" : 0,
					"patching_rect" : [ 957.461744712584732, 1099.905529686554246, 157.0, 23.0 ],
					"style" : "Send",
					"text" : "s #1_EvoParam12"
				}

			}
, 			{
				"box" : 				{
					"id" : "obj-8",
					"maxclass" : "newobj",
					"numinlets" : 0,
					"numoutlets" : 1,
					"outlettype" : [ "" ],
					"patching_rect" : [ 1039.494082854979752, 862.084983893974822, 118.0, 23.0 ],
					"style" : "Receive",
					"text" : "r Noise_Gain"
				}

			}
, 			{
				"box" : 				{
					"id" : "obj-16",
					"maxclass" : "newobj",
					"numinlets" : 2,
					"numoutlets" : 1,
					"outlettype" : [ "" ],
					"patching_rect" : [ 957.461744712584732, 908.369896837814849, 63.0, 23.0 ],
					"style" : "Patcher blue",
					"text" : "UniAbs"
				}

			}
, 			{
				"box" : 				{
					"bgcolor" : [ 0.301961, 0.301961, 0.301961, 1.0 ],
					"bgcolor2" : [ 0.301961, 0.301961, 0.301961, 1.0 ],
					"bgfillcolor_angle" : 270.0,
					"bgfillcolor_autogradient" : 0.0,
					"bgfillcolor_color" : [ 0.341176470588235, 0.329411764705882, 0.796078431372549, 1.0 ],
					"bgfillcolor_color1" : [ 0.301961, 0.301961, 0.301961, 1.0 ],
					"bgfillcolor_color2" : [ 0.2, 0.2, 0.2, 1.0 ],
					"bgfillcolor_proportion" : 0.5,
					"bgfillcolor_type" : "color",
					"gradient" : 1,
					"id" : "obj-18",
					"maxclass" : "message",
					"numinlets" : 2,
					"numoutlets" : 1,
					"outlettype" : [ "" ],
					"patching_rect" : [ 957.461744712584732, 1035.186253019913238, 141.0, 23.0 ],
					"style" : "message001",
					"text" : "\"Sample Level\" $1"
				}

			}
, 			{
				"box" : 				{
					"id" : "obj-5",
					"maxclass" : "newobj",
					"numinlets" : 2,
					"numoutlets" : 1,
					"outlettype" : [ "" ],
					"patching_rect" : [ 1192.068404429715883, 146.0, 63.0, 23.0 ],
					"text" : "pipe 10"
				}

			}
, 			{
				"box" : 				{
					"id" : "obj-4",
					"maxclass" : "newobj",
					"numinlets" : 2,
					"numoutlets" : 1,
					"outlettype" : [ "" ],
					"patching_rect" : [ 1158.461745666259048, 960.737284967049163, 63.0, 23.0 ],
					"style" : "Patcher blue",
					"text" : "UniToBi"
				}

			}
, 			{
				"box" : 				{
					"id" : "obj-80",
					"maxclass" : "newobj",
					"numinlets" : 1,
					"numoutlets" : 2,
					"outlettype" : [ "int", "float" ],
					"patching_rect" : [ 1146.549625039101784, 268.641562104225159, 100.0, 23.0 ],
					"text" : "unpack i f"
				}

			}
, 			{
				"box" : 				{
					"id" : "obj-79",
					"maxclass" : "newobj",
					"numinlets" : 1,
					"numoutlets" : 2,
					"outlettype" : [ "int", "float" ],
					"patching_rect" : [ 1256.493966698647455, 268.641562104225159, 100.0, 23.0 ],
					"text" : "unpack i f"
				}

			}
, 			{
				"box" : 				{
					"id" : "obj-76",
					"maxclass" : "newobj",
					"numinlets" : 1,
					"numoutlets" : 2,
					"outlettype" : [ "", "" ],
					"patching_rect" : [ 1215.520923170302694, 220.122807879463153, 100.0, 23.0 ],
					"text" : "t l l"
				}

			}
, 			{
				"box" : 				{
					"id" : "obj-75",
					"maxclass" : "newobj",
					"numinlets" : 2,
					"numoutlets" : 1,
					"outlettype" : [ "" ],
					"patching_rect" : [ 1215.520923170302694, 187.289475102439837, 100.0, 23.0 ],
					"text" : "pack i f"
				}

			}
, 			{
				"box" : 				{
					"id" : "obj-32",
					"maxclass" : "newobj",
					"numinlets" : 1,
					"numoutlets" : 0,
					"patching_rect" : [ 3010.220397068270358, 1088.246993490799241, 157.0, 23.0 ],
					"style" : "Send",
					"text" : "s #1_EvoParam12"
				}

			}
, 			{
				"box" : 				{
					"id" : "obj-31",
					"maxclass" : "newobj",
					"numinlets" : 1,
					"numoutlets" : 0,
					"patching_rect" : [ 2810.422775698908481, 1088.246993490799241, 157.0, 23.0 ],
					"style" : "Send",
					"text" : "s #1_EvoParam11"
				}

			}
, 			{
				"box" : 				{
					"id" : "obj-29",
					"maxclass" : "newobj",
					"numinlets" : 1,
					"numoutlets" : 0,
					"patching_rect" : [ 2624.44205505967966, 1091.88335699711638, 157.0, 23.0 ],
					"style" : "Send",
					"text" : "s #1_EvoParam10"
				}

			}
, 			{
				"box" : 				{
					"id" : "obj-28",
					"maxclass" : "newobj",
					"numinlets" : 1,
					"numoutlets" : 0,
					"patching_rect" : [ 1974.208639336832675, 1091.88335699711638, 149.0, 23.0 ],
					"style" : "Send",
					"text" : "s #1_EvoParam7"
				}

			}
, 			{
				"box" : 				{
					"id" : "obj-15",
					"maxclass" : "newobj",
					"numinlets" : 1,
					"numoutlets" : 0,
					"patching_rect" : [ 2403.915989670013005, 1091.88335699711638, 149.0, 23.0 ],
					"style" : "Send",
					"text" : "s #1_EvoParam9"
				}

			}
, 			{
				"box" : 				{
					"id" : "obj-14",
					"maxclass" : "newobj",
					"numinlets" : 1,
					"numoutlets" : 0,
					"patching_rect" : [ 2202.763184341643864, 1091.88335699711638, 149.0, 23.0 ],
					"style" : "Send",
					"text" : "s #1_EvoParam8"
				}

			}
, 			{
				"box" : 				{
					"id" : "obj-13",
					"maxclass" : "newobj",
					"numinlets" : 1,
					"numoutlets" : 0,
					"patching_rect" : [ 1748.035920652602726, 1091.88335699711638, 149.0, 23.0 ],
					"style" : "Send",
					"text" : "s #1_EvoParam6"
				}

			}
, 			{
				"box" : 				{
					"id" : "obj-12",
					"maxclass" : "newobj",
					"numinlets" : 1,
					"numoutlets" : 0,
					"patching_rect" : [ 1542.59430868745676, 1091.88335699711638, 149.0, 23.0 ],
					"style" : "Send",
					"text" : "s #1_EvoParam5"
				}

			}
, 			{
				"box" : 				{
					"id" : "obj-11",
					"maxclass" : "newobj",
					"numinlets" : 1,
					"numoutlets" : 0,
					"patching_rect" : [ 1357.961809754372553, 1088.246993490799241, 149.0, 23.0 ],
					"style" : "Send",
					"text" : "s #1_EvoParam4"
				}

			}
, 			{
				"box" : 				{
					"id" : "obj-10",
					"maxclass" : "newobj",
					"numinlets" : 1,
					"numoutlets" : 0,
					"patching_rect" : [ 1182.913436962374362, 1088.246993490799241, 149.0, 23.0 ],
					"style" : "Send",
					"text" : "s #1_EvoParam3"
				}

			}
, 			{
				"box" : 				{
					"id" : "obj-9",
					"maxclass" : "newobj",
					"numinlets" : 1,
					"numoutlets" : 0,
					"patching_rect" : [ 254.731586290606174, 1194.756456204994038, 149.0, 23.0 ],
					"style" : "Send",
					"text" : "s #1_EvoParam2"
				}

			}
, 			{
				"box" : 				{
					"id" : "obj-406",
					"maxclass" : "newobj",
					"numinlets" : 0,
					"numoutlets" : 1,
					"outlettype" : [ "" ],
					"patching_rect" : [ 3092.252735210665378, 850.426447698219818, 110.0, 23.0 ],
					"style" : "Receive",
					"text" : "r Chorus_Gain"
				}

			}
, 			{
				"box" : 				{
					"id" : "obj-405",
					"maxclass" : "newobj",
					"numinlets" : 0,
					"numoutlets" : 1,
					"outlettype" : [ "" ],
					"patching_rect" : [ 2848.058327509173068, 872.426447698219818, 94.0, 23.0 ],
					"style" : "Receive",
					"text" : "r Comb_Gain"
				}

			}
, 			{
				"box" : 				{
					"id" : "obj-399",
					"maxclass" : "newobj",
					"numinlets" : 0,
					"numoutlets" : 1,
					"outlettype" : [ "" ],
					"patching_rect" : [ 2651.134809249204409, 864.926447698219818, 141.0, 23.0 ],
					"style" : "Receive",
					"text" : "r Distortion_Gain"
				}

			}
, 			{
				"box" : 				{
					"id" : "obj-394",
					"maxclass" : "newobj",
					"numinlets" : 0,
					"numoutlets" : 1,
					"outlettype" : [ "" ],
					"patching_rect" : [ 2016.068441623014223, 878.626159021004241, 143.734941005706787, 23.0 ],
					"style" : "Receive",
					"text" : "r Macro4_Gain"
				}

			}
, 			{
				"box" : 				{
					"id" : "obj-387",
					"maxclass" : "newobj",
					"numinlets" : 0,
					"numoutlets" : 1,
					"outlettype" : [ "" ],
					"patching_rect" : [ 2459.847273230553583, 878.80830413971762, 143.734941005706787, 23.0 ],
					"style" : "Receive",
					"text" : "r Macro3_Gain"
				}

			}
, 			{
				"box" : 				{
					"id" : "obj-385",
					"maxclass" : "newobj",
					"numinlets" : 0,
					"numoutlets" : 1,
					"outlettype" : [ "" ],
					"patching_rect" : [ 2239.508284926415399, 888.22423500691275, 143.734941005706787, 23.0 ],
					"style" : "Receive",
					"text" : "r Macro2_Gain"
				}

			}
, 			{
				"box" : 				{
					"id" : "obj-384",
					"maxclass" : "newobj",
					"numinlets" : 0,
					"numoutlets" : 1,
					"outlettype" : [ "" ],
					"patching_rect" : [ 1785.904765678652439, 858.434046098335784, 143.734941005706787, 23.0 ],
					"style" : "Receive",
					"text" : "r Osc2Dist_Gain"
				}

			}
, 			{
				"box" : 				{
					"id" : "obj-378",
					"maxclass" : "newobj",
					"numinlets" : 0,
					"numoutlets" : 1,
					"outlettype" : [ "" ],
					"patching_rect" : [ 1599.226463271387729, 866.931316205605071, 143.734941005706787, 23.0 ],
					"style" : "Receive",
					"text" : "r Osc1Dist_Gain"
				}

			}
, 			{
				"box" : 				{
					"id" : "obj-361",
					"maxclass" : "newobj",
					"numinlets" : 0,
					"numoutlets" : 1,
					"outlettype" : [ "" ],
					"patching_rect" : [ 1396.533414317377719, 876.753912994011444, 143.734941005706787, 23.0 ],
					"style" : "Receive",
					"text" : "r Osc2Morph_Gain"
				}

			}
, 			{
				"box" : 				{
					"id" : "obj-337",
					"maxclass" : "newobj",
					"numinlets" : 0,
					"numoutlets" : 1,
					"outlettype" : [ "" ],
					"patching_rect" : [ 1179.875102354296359, 880.390276500328582, 143.734941005706787, 23.0 ],
					"style" : "Receive",
					"text" : "r Osc1Morph_Gain"
				}

			}
, 			{
				"box" : 				{
					"id" : "obj-317",
					"maxclass" : "newobj",
					"numinlets" : 0,
					"numoutlets" : 1,
					"outlettype" : [ "" ],
					"patching_rect" : [ 254.731586290606174, 966.527863570793215, 133.0, 23.0 ],
					"style" : "Receive",
					"text" : "r Osc2Frame_Gain"
				}

			}
, 			{
				"box" : 				{
					"id" : "obj-314",
					"maxclass" : "newobj",
					"numinlets" : 0,
					"numoutlets" : 1,
					"outlettype" : [ "" ],
					"patching_rect" : [ 779.42346055627695, 874.354074784859222, 133.0, 23.0 ],
					"style" : "Receive",
					"text" : "r Osc1Frame_Gain"
				}

			}
, 			{
				"box" : 				{
					"id" : "obj-260",
					"maxclass" : "newobj",
					"numinlets" : 0,
					"numoutlets" : 1,
					"outlettype" : [ "" ],
					"patching_rect" : [ 1085.708602143534335, 58.177421092987061, 126.0, 23.0 ],
					"style" : "Receive",
					"text" : "r #1_hash"
				}

			}
, 			{
				"box" : 				{
					"id" : "obj-259",
					"maxclass" : "newobj",
					"numinlets" : 2,
					"numoutlets" : 12,
					"outlettype" : [ "", "", "", "", "", "", "", "", "", "", "", "" ],
					"patching_rect" : [ 1064.352994570739611, 323.752810716629028, 454.055055316687685, 23.0 ],
					"text" : "gate 12"
				}

			}
, 			{
				"box" : 				{
					"id" : "obj-39",
					"maxclass" : "newobj",
					"numinlets" : 0,
					"numoutlets" : 1,
					"outlettype" : [ "" ],
					"patching_rect" : [ 715.59427149415842, 232.079329390541034, 118.0, 23.0 ],
					"style" : "Receive",
					"text" : "r Hash_Routing"
				}

			}
, 			{
				"box" : 				{
					"id" : "obj-161",
					"maxclass" : "newobj",
					"numinlets" : 1,
					"numoutlets" : 1,
					"outlettype" : [ "" ],
					"patching_rect" : [ 1169.327195465565637, 842.407392927750152, 165.0, 23.0 ],
					"style" : "Patcher blue",
					"text" : "StepSmooth #1 0."
				}

			}
, 			{
				"box" : 				{
					"id" : "obj-160",
					"maxclass" : "newobj",
					"numinlets" : 1,
					"numoutlets" : 1,
					"outlettype" : [ "" ],
					"patching_rect" : [ 948.369604110718683, 832.708980032547515, 165.0, 23.0 ],
					"style" : "Patcher blue",
					"text" : "StepSmooth #1 0."
				}

			}
, 			{
				"box" : 				{
					"id" : "obj-561",
					"maxclass" : "newobj",
					"numinlets" : 2,
					"numoutlets" : 1,
					"outlettype" : [ "" ],
					"patching_rect" : [ 3010.220397068270358, 896.711360642059844, 63.0, 23.0 ],
					"style" : "Patcher blue",
					"text" : "UniAbs"
				}

			}
, 			{
				"box" : 				{
					"id" : "obj-567",
					"maxclass" : "newobj",
					"numinlets" : 1,
					"numoutlets" : 1,
					"outlettype" : [ "" ],
					"patching_rect" : [ 3010.220397068270358, 805.746945568665069, 165.0, 23.0 ],
					"style" : "Patcher blue",
					"text" : "StepSmooth #1 0."
				}

			}
, 			{
				"box" : 				{
					"bgcolor" : [ 0.301961, 0.301961, 0.301961, 1.0 ],
					"bgcolor2" : [ 0.301961, 0.301961, 0.301961, 1.0 ],
					"bgfillcolor_angle" : 270.0,
					"bgfillcolor_autogradient" : 0.0,
					"bgfillcolor_color" : [ 0.341176470588235, 0.329411764705882, 0.796078431372549, 1.0 ],
					"bgfillcolor_color1" : [ 0.301961, 0.301961, 0.301961, 1.0 ],
					"bgfillcolor_color2" : [ 0.2, 0.2, 0.2, 1.0 ],
					"bgfillcolor_proportion" : 0.5,
					"bgfillcolor_type" : "color",
					"gradient" : 1,
					"id" : "obj-571",
					"maxclass" : "message",
					"numinlets" : 2,
					"numoutlets" : 1,
					"outlettype" : [ "" ],
					"patching_rect" : [ 3010.220397068270358, 1023.527716824158233, 172.0, 23.0 ],
					"style" : "message001",
					"text" : "\"Chorus Mix\" $1"
				}

			}
, 			{
				"box" : 				{
					"id" : "obj-553",
					"maxclass" : "newobj",
					"numinlets" : 2,
					"numoutlets" : 1,
					"outlettype" : [ "" ],
					"patching_rect" : [ 1972.068441623014223, 936.546364137276214, 63.0, 23.0 ],
					"style" : "Patcher blue",
					"text" : "UniToBi"
				}

			}
, 			{
				"box" : 				{
					"id" : "obj-555",
					"maxclass" : "newobj",
					"numinlets" : 1,
					"numoutlets" : 1,
					"outlettype" : [ "" ],
					"patching_rect" : [ 1967.046511801932866, 824.846478649719757, 165.0, 23.0 ],
					"style" : "Patcher blue",
					"text" : "StepSmooth #1 0."
				}

			}
, 			{
				"box" : 				{
					"id" : "obj-556",
					"maxclass" : "message",
					"numinlets" : 2,
					"numoutlets" : 1,
					"outlettype" : [ "" ],
					"patching_rect" : [ 1974.208639336832675, 1012.223230549438995, 102.0, 23.0 ],
					"style" : "default",
					"text" : "\"Macro 1\" $1"
				}

			}
, 			{
				"box" : 				{
					"id" : "obj-546",
					"maxclass" : "newobj",
					"numinlets" : 2,
					"numoutlets" : 1,
					"outlettype" : [ "" ],
					"patching_rect" : [ 2412.773032499560031, 924.470319220169586, 63.0, 23.0 ],
					"style" : "Patcher blue",
					"text" : "UniToBi"
				}

			}
, 			{
				"box" : 				{
					"id" : "obj-548",
					"maxclass" : "newobj",
					"numinlets" : 1,
					"numoutlets" : 1,
					"outlettype" : [ "" ],
					"patching_rect" : [ 2403.915989670013005, 817.955877491577667, 165.0, 23.0 ],
					"style" : "Patcher blue",
					"text" : "StepSmooth #1 0."
				}

			}
, 			{
				"box" : 				{
					"id" : "obj-549",
					"maxclass" : "message",
					"numinlets" : 2,
					"numoutlets" : 1,
					"outlettype" : [ "" ],
					"patching_rect" : [ 2414.913230213378483, 1001.842100926979583, 102.0, 23.0 ],
					"style" : "default",
					"text" : "\"Macro 3\" $1"
				}

			}
, 			{
				"box" : 				{
					"id" : "obj-468",
					"maxclass" : "newobj",
					"numinlets" : 2,
					"numoutlets" : 1,
					"outlettype" : [ "" ],
					"patching_rect" : [ 2207.419576002368558, 935.811916181191009, 63.0, 23.0 ],
					"style" : "Patcher blue",
					"text" : "UniToBi"
				}

			}
, 			{
				"box" : 				{
					"id" : "obj-472",
					"maxclass" : "newobj",
					"numinlets" : 1,
					"numoutlets" : 1,
					"outlettype" : [ "" ],
					"patching_rect" : [ 2184.815590414260441, 827.697919556244415, 165.0, 23.0 ],
					"style" : "Patcher blue",
					"text" : "StepSmooth #1 0."
				}

			}
, 			{
				"box" : 				{
					"id" : "obj-478",
					"maxclass" : "message",
					"numinlets" : 2,
					"numoutlets" : 1,
					"outlettype" : [ "" ],
					"patching_rect" : [ 2207.419576002368558, 1014.071102091415923, 102.0, 23.0 ],
					"style" : "default",
					"text" : "\"Macro 2\" $1"
				}

			}
, 			{
				"box" : 				{
					"id" : "obj-439",
					"maxclass" : "newobj",
					"numinlets" : 13,
					"numoutlets" : 13,
					"outlettype" : [ "dictionary", "", "", "", "", "", "", "", "", "", "", "", "" ],
					"patching_rect" : [ 1022.580582579382281, 362.880895384891573, 492.25603912830411, 23.0 ],
					"text" : "matrix 12 12"
				}

			}
, 			{
				"box" : 				{
					"id" : "obj-509",
					"maxclass" : "newobj",
					"numinlets" : 2,
					"numoutlets" : 1,
					"outlettype" : [ "" ],
					"patching_rect" : [ 242.461707519286392, 1008.610384174926821, 63.0, 23.0 ],
					"style" : "Patcher blue",
					"text" : "UniToBi"
				}

			}
, 			{
				"box" : 				{
					"id" : "obj-505",
					"maxclass" : "newobj",
					"numinlets" : 2,
					"numoutlets" : 1,
					"outlettype" : [ "" ],
					"patching_rect" : [ 1357.961809754372553, 918.488102027519744, 63.0, 23.0 ],
					"style" : "Patcher blue",
					"text" : "UniAbs"
				}

			}
, 			{
				"box" : 				{
					"id" : "obj-497",
					"maxclass" : "newobj",
					"numinlets" : 2,
					"numoutlets" : 1,
					"outlettype" : [ "" ],
					"patching_rect" : [ 1760.450531601906732, 895.360009380920928, 55.0, 23.0 ],
					"style" : "Patcher blue",
					"text" : "UniAbs"
				}

			}
, 			{
				"box" : 				{
					"id" : "obj-495",
					"maxclass" : "newobj",
					"numinlets" : 2,
					"numoutlets" : 1,
					"outlettype" : [ "" ],
					"patching_rect" : [ 764.430957628496799, 907.159750768288177, 63.0, 23.0 ],
					"style" : "Patcher blue",
					"text" : "UniToBi"
				}

			}
, 			{
				"box" : 				{
					"id" : "obj-488",
					"maxclass" : "newobj",
					"numinlets" : 2,
					"numoutlets" : 1,
					"outlettype" : [ "" ],
					"patching_rect" : [ 2633.162984086283359, 914.984927007301849, 63.0, 23.0 ],
					"style" : "Patcher blue",
					"text" : "UniAbs"
				}

			}
, 			{
				"box" : 				{
					"id" : "obj-486",
					"maxclass" : "newobj",
					"numinlets" : 2,
					"numoutlets" : 1,
					"outlettype" : [ "" ],
					"patching_rect" : [ 2804.058327509173068, 913.994845100983184, 63.0, 23.0 ],
					"style" : "Patcher blue",
					"text" : "UniToBi"
				}

			}
, 			{
				"box" : 				{
					"id" : "obj-484",
					"maxclass" : "newobj",
					"numinlets" : 2,
					"numoutlets" : 1,
					"outlettype" : [ "" ],
					"patching_rect" : [ 1550.59430868745676, 905.737284967049163, 63.0, 23.0 ],
					"style" : "Patcher blue",
					"text" : "UniAbs"
				}

			}
, 			{
				"box" : 				{
					"id" : "obj-457",
					"maxclass" : "newobj",
					"numinlets" : 1,
					"numoutlets" : 1,
					"outlettype" : [ "" ],
					"patching_rect" : [ 1347.859994138632828, 844.322628327950042, 165.0, 23.0 ],
					"style" : "Patcher blue",
					"text" : "StepSmooth #1 0."
				}

			}
, 			{
				"box" : 				{
					"id" : "obj-455",
					"maxclass" : "newobj",
					"numinlets" : 1,
					"numoutlets" : 1,
					"outlettype" : [ "" ],
					"patching_rect" : [ 1748.035920652602726, 822.185723969086212, 165.0, 23.0 ],
					"style" : "Patcher blue",
					"text" : "StepSmooth #1 0."
				}

			}
, 			{
				"box" : 				{
					"id" : "obj-453",
					"maxclass" : "newobj",
					"numinlets" : 1,
					"numoutlets" : 1,
					"outlettype" : [ "" ],
					"patching_rect" : [ 761.714316368103027, 832.885034391029876, 165.0, 23.0 ],
					"style" : "Patcher blue",
					"text" : "StepSmooth #1 0."
				}

			}
, 			{
				"box" : 				{
					"id" : "obj-445",
					"maxclass" : "newobj",
					"numinlets" : 1,
					"numoutlets" : 1,
					"outlettype" : [ "" ],
					"patching_rect" : [ 1550.59430868745676, 831.168862172707122, 165.0, 23.0 ],
					"style" : "Patcher blue",
					"text" : "StepSmooth #1 0."
				}

			}
, 			{
				"box" : 				{
					"id" : "obj-443",
					"maxclass" : "newobj",
					"numinlets" : 1,
					"numoutlets" : 1,
					"outlettype" : [ "" ],
					"patching_rect" : [ 2816.00248534799448, 820.272142716988128, 165.0, 23.0 ],
					"style" : "Patcher blue",
					"text" : "StepSmooth #1 0."
				}

			}
, 			{
				"box" : 				{
					"id" : "obj-437",
					"maxclass" : "newobj",
					"numinlets" : 1,
					"numoutlets" : 1,
					"outlettype" : [ "" ],
					"patching_rect" : [ 2633.215040280689209, 825.386738010986846, 165.0, 23.0 ],
					"style" : "Patcher blue",
					"text" : "StepSmooth #1 0."
				}

			}
, 			{
				"box" : 				{
					"id" : "obj-338",
					"maxclass" : "newobj",
					"numinlets" : 0,
					"numoutlets" : 1,
					"outlettype" : [ "" ],
					"patching_rect" : [ 1305.633620494169008, 58.177421092987061, 157.0, 23.0 ],
					"style" : "Receive",
					"text" : "r #1_DeltaBrown"
				}

			}
, 			{
				"box" : 				{
					"id" : "obj-325",
					"maxclass" : "message",
					"numinlets" : 2,
					"numoutlets" : 1,
					"outlettype" : [ "" ],
					"patching_rect" : [ 2810.422775698908481, 1023.527716824158233, 149.0, 23.0 ],
					"style" : "default",
					"text" : "\"Filter fx Mix\" $1"
				}

			}
, 			{
				"box" : 				{
					"id" : "obj-124",
					"linecount" : 2,
					"maxclass" : "message",
					"numinlets" : 2,
					"numoutlets" : 1,
					"outlettype" : [ "" ],
					"patching_rect" : [ 248.444986654529202, 1084.049464770896975, 121.117649078369141, 38.0 ],
					"text" : "\"Oscillator 2 Wave Frame\" $1"
				}

			}
, 			{
				"box" : 				{
					"bgcolor" : [ 0.301961, 0.301961, 0.301961, 1.0 ],
					"bgcolor2" : [ 0.301961, 0.301961, 0.301961, 1.0 ],
					"bgfillcolor_angle" : 270.0,
					"bgfillcolor_autogradient" : 0.0,
					"bgfillcolor_color" : [ 0.341176470588235, 0.329411764705882, 0.796078431372549, 1.0 ],
					"bgfillcolor_color1" : [ 0.301961, 0.301961, 0.301961, 1.0 ],
					"bgfillcolor_color2" : [ 0.2, 0.2, 0.2, 1.0 ],
					"bgfillcolor_proportion" : 0.5,
					"bgfillcolor_type" : "color",
					"gradient" : 1,
					"id" : "obj-144",
					"linecount" : 3,
					"maxclass" : "message",
					"numinlets" : 2,
					"numoutlets" : 1,
					"outlettype" : [ "" ],
					"patching_rect" : [ 1347.859994138632828, 992.040002056702178, 135.805975914001465, 52.0 ],
					"text" : "\"Oscillator 2 Frequency Morph Amo\" $1"
				}

			}
, 			{
				"box" : 				{
					"bgcolor" : [ 0.301961, 0.301961, 0.301961, 1.0 ],
					"bgcolor2" : [ 0.301961, 0.301961, 0.301961, 1.0 ],
					"bgfillcolor_angle" : 270.0,
					"bgfillcolor_autogradient" : 0.0,
					"bgfillcolor_color" : [ 0.341176470588235, 0.329411764705882, 0.796078431372549, 1.0 ],
					"bgfillcolor_color1" : [ 0.301961, 0.301961, 0.301961, 1.0 ],
					"bgfillcolor_color2" : [ 0.2, 0.2, 0.2, 1.0 ],
					"bgfillcolor_proportion" : 0.5,
					"bgfillcolor_type" : "color",
					"gradient" : 1,
					"id" : "obj-145",
					"linecount" : 3,
					"maxclass" : "message",
					"numinlets" : 2,
					"numoutlets" : 1,
					"outlettype" : [ "" ],
					"patching_rect" : [ 1757.338245901320988, 975.664169975861114, 147.671646595001221, 52.0 ],
					"text" : "\"Oscillator 2 Distortion Amount\" $1"
				}

			}
, 			{
				"box" : 				{
					"id" : "obj-116",
					"maxclass" : "newobj",
					"numinlets" : 1,
					"numoutlets" : 0,
					"patching_rect" : [ 765.267224669457391, 1091.549464770897202, 149.0, 23.0 ],
					"style" : "Send",
					"text" : "s #1_EvoParam1"
				}

			}
, 			{
				"box" : 				{
					"id" : "obj-114",
					"linecount" : 2,
					"maxclass" : "message",
					"numinlets" : 2,
					"numoutlets" : 1,
					"outlettype" : [ "" ],
					"patching_rect" : [ 765.267224669457391, 988.176365563019317, 128.470590114593506, 38.0 ],
					"text" : "\"Oscillator 1 Wave Frame\" $1"
				}

			}
, 			{
				"box" : 				{
					"bgcolor" : [ 0.301961, 0.301961, 0.301961, 1.0 ],
					"bgcolor2" : [ 0.301961, 0.301961, 0.301961, 1.0 ],
					"bgfillcolor_angle" : 270.0,
					"bgfillcolor_autogradient" : 0.0,
					"bgfillcolor_color" : [ 0.341176470588235, 0.329411764705882, 0.796078431372549, 1.0 ],
					"bgfillcolor_color1" : [ 0.301961, 0.301961, 0.301961, 1.0 ],
					"bgfillcolor_color2" : [ 0.2, 0.2, 0.2, 1.0 ],
					"bgfillcolor_proportion" : 0.5,
					"bgfillcolor_type" : "color",
					"gradient" : 1,
					"id" : "obj-113",
					"maxclass" : "message",
					"numinlets" : 2,
					"numoutlets" : 1,
					"outlettype" : [ "" ],
					"patching_rect" : [ 2616.591057182413351, 1014.071102091415923, 157.0, 23.0 ],
					"text" : "\"Distortion Mix\" $1"
				}

			}
, 			{
				"box" : 				{
					"id" : "obj-103",
					"linecount" : 3,
					"maxclass" : "message",
					"numinlets" : 2,
					"numoutlets" : 1,
					"outlettype" : [ "" ],
					"patching_rect" : [ 1165.893177582033786, 995.676365563019317, 141.578307509422302, 52.0 ],
					"text" : "\"Oscillator 1 Frequency Morph Amo\" $1"
				}

			}
, 			{
				"box" : 				{
					"bgcolor" : [ 0.301961, 0.301961, 0.301961, 1.0 ],
					"bgcolor2" : [ 0.301961, 0.301961, 0.301961, 1.0 ],
					"bgfillcolor_angle" : 270.0,
					"bgfillcolor_autogradient" : 0.0,
					"bgfillcolor_color" : [ 0.341176470588235, 0.329411764705882, 0.796078431372549, 1.0 ],
					"bgfillcolor_color1" : [ 0.301961, 0.301961, 0.301961, 1.0 ],
					"bgfillcolor_color2" : [ 0.2, 0.2, 0.2, 1.0 ],
					"bgfillcolor_proportion" : 0.5,
					"bgfillcolor_type" : "color",
					"gradient" : 1,
					"id" : "obj-93",
					"linecount" : 3,
					"maxclass" : "message",
					"numinlets" : 2,
					"numoutlets" : 1,
					"outlettype" : [ "" ],
					"patching_rect" : [ 1550.59430868745676, 981.176365563019317, 120.805975914001465, 52.0 ],
					"text" : "\"Oscillator 1 Distortion Amount\" $1"
				}

			}
, 			{
				"box" : 				{
					"id" : "obj-3",
					"maxclass" : "message",
					"numinlets" : 2,
					"numoutlets" : 1,
					"outlettype" : [ "" ],
					"patching_rect" : [ 935.900798624762501, 220.122807879463153, 71.0, 23.0 ],
					"text" : "clear"
				}

			}
, 			{
				"box" : 				{
					"id" : "obj-6",
					"maxclass" : "message",
					"numinlets" : 2,
					"numoutlets" : 1,
					"outlettype" : [ "" ],
					"patching_rect" : [ 1025.755871838339772, 200.996835928459177, 149.0, 23.0 ],
					"text" : "dumpconnections"
				}

			}
 ],
		"lines" : [ 			{
				"patchline" : 				{
					"destination" : [ "obj-10", 0 ],
					"source" : [ "obj-103", 0 ]
				}

			}
, 			{
				"patchline" : 				{
					"destination" : [ "obj-29", 0 ],
					"source" : [ "obj-113", 0 ]
				}

			}
, 			{
				"patchline" : 				{
					"destination" : [ "obj-116", 0 ],
					"source" : [ "obj-114", 0 ]
				}

			}
, 			{
				"patchline" : 				{
					"destination" : [ "obj-9", 0 ],
					"source" : [ "obj-124", 0 ]
				}

			}
, 			{
				"patchline" : 				{
					"destination" : [ "obj-11", 0 ],
					"source" : [ "obj-144", 0 ]
				}

			}
, 			{
				"patchline" : 				{
					"destination" : [ "obj-13", 0 ],
					"source" : [ "obj-145", 0 ]
				}

			}
, 			{
				"patchline" : 				{
					"destination" : [ "obj-18", 0 ],
					"source" : [ "obj-16", 0 ]
				}

			}
, 			{
				"patchline" : 				{
					"destination" : [ "obj-16", 0 ],
					"source" : [ "obj-160", 0 ]
				}

			}
, 			{
				"patchline" : 				{
					"destination" : [ "obj-4", 0 ],
					"source" : [ "obj-161", 0 ]
				}

			}
, 			{
				"patchline" : 				{
					"destination" : [ "obj-7", 0 ],
					"source" : [ "obj-18", 0 ]
				}

			}
, 			{
				"patchline" : 				{
					"destination" : [ "obj-439", 12 ],
					"midpoints" : [ 1508.908049887427296, 357.0, 1505.33662170768639, 357.0 ],
					"source" : [ "obj-259", 11 ]
				}

			}
, 			{
				"patchline" : 				{
					"destination" : [ "obj-439", 11 ],
					"midpoints" : [ 1469.357590313182982, 357.0, 1465.898618446994305, 357.0 ],
					"source" : [ "obj-259", 10 ]
				}

			}
, 			{
				"patchline" : 				{
					"destination" : [ "obj-439", 10 ],
					"midpoints" : [ 1429.807130738938667, 357.0, 1426.460615186302448, 357.0 ],
					"source" : [ "obj-259", 9 ]
				}

			}
, 			{
				"patchline" : 				{
					"destination" : [ "obj-439", 9 ],
					"midpoints" : [ 1390.256671164694353, 357.0, 1387.022611925610363, 357.0 ],
					"source" : [ "obj-259", 8 ]
				}

			}
, 			{
				"patchline" : 				{
					"destination" : [ "obj-439", 8 ],
					"midpoints" : [ 1350.706211590450039, 357.0, 1347.584608664918278, 357.0 ],
					"source" : [ "obj-259", 7 ]
				}

			}
, 			{
				"patchline" : 				{
					"destination" : [ "obj-439", 7 ],
					"midpoints" : [ 1311.155752016205497, 357.0, 1308.14660540422642, 357.0 ],
					"source" : [ "obj-259", 6 ]
				}

			}
, 			{
				"patchline" : 				{
					"destination" : [ "obj-439", 6 ],
					"midpoints" : [ 1271.60529244196141, 357.0, 1268.708602143534335, 357.0 ],
					"source" : [ "obj-259", 5 ]
				}

			}
, 			{
				"patchline" : 				{
					"destination" : [ "obj-439", 5 ],
					"midpoints" : [ 1232.054832867716868, 357.0, 1229.270598882842251, 357.0 ],
					"source" : [ "obj-259", 4 ]
				}

			}
, 			{
				"patchline" : 				{
					"destination" : [ "obj-439", 4 ],
					"midpoints" : [ 1192.504373293472554, 357.0, 1189.832595622150393, 357.0 ],
					"source" : [ "obj-259", 3 ]
				}

			}
, 			{
				"patchline" : 				{
					"destination" : [ "obj-439", 3 ],
					"midpoints" : [ 1152.95391371922824, 357.0, 1150.394592361458308, 357.0 ],
					"source" : [ "obj-259", 2 ]
				}

			}
, 			{
				"patchline" : 				{
					"destination" : [ "obj-439", 2 ],
					"midpoints" : [ 1113.403454144983925, 357.0, 1110.956589100766223, 357.0 ],
					"source" : [ "obj-259", 1 ]
				}

			}
, 			{
				"patchline" : 				{
					"destination" : [ "obj-439", 1 ],
					"midpoints" : [ 1073.852994570739611, 348.0, 1071.518585840074365, 348.0 ],
					"source" : [ "obj-259", 0 ]
				}

			}
, 			{
				"patchline" : 				{
					"destination" : [ "obj-5", 0 ],
					"source" : [ "obj-260", 0 ]
				}

			}
, 			{
				"patchline" : 				{
					"destination" : [ "obj-439", 0 ],
					"source" : [ "obj-3", 0 ]
				}

			}
, 			{
				"patchline" : 				{
					"destination" : [ "obj-495", 1 ],
					"source" : [ "obj-314", 0 ]
				}

			}
, 			{
				"patchline" : 				{
					"destination" : [ "obj-509", 1 ],
					"source" : [ "obj-317", 0 ]
				}

			}
, 			{
				"patchline" : 				{
					"destination" : [ "obj-31", 0 ],
					"source" : [ "obj-325", 0 ]
				}

			}
, 			{
				"patchline" : 				{
					"destination" : [ "obj-75", 1 ],
					"source" : [ "obj-338", 0 ]
				}

			}
, 			{
				"patchline" : 				{
					"destination" : [ "obj-505", 1 ],
					"source" : [ "obj-361", 0 ]
				}

			}
, 			{
				"patchline" : 				{
					"destination" : [ "obj-484", 1 ],
					"source" : [ "obj-378", 0 ]
				}

			}
, 			{
				"patchline" : 				{
					"destination" : [ "obj-497", 1 ],
					"source" : [ "obj-384", 0 ]
				}

			}
, 			{
				"patchline" : 				{
					"destination" : [ "obj-468", 1 ],
					"source" : [ "obj-385", 0 ]
				}

			}
, 			{
				"patchline" : 				{
					"destination" : [ "obj-546", 1 ],
					"source" : [ "obj-387", 0 ]
				}

			}
, 			{
				"patchline" : 				{
					"destination" : [ "obj-439", 0 ],
					"midpoints" : [ 725.09427149415842, 348.0, 1032.080582579382281, 348.0 ],
					"source" : [ "obj-39", 0 ]
				}

			}
, 			{
				"patchline" : 				{
					"destination" : [ "obj-553", 1 ],
					"source" : [ "obj-394", 0 ]
				}

			}
, 			{
				"patchline" : 				{
					"destination" : [ "obj-488", 1 ],
					"source" : [ "obj-399", 0 ]
				}

			}
, 			{
				"patchline" : 				{
					"destination" : [ "obj-103", 0 ],
					"source" : [ "obj-4", 0 ]
				}

			}
, 			{
				"patchline" : 				{
					"destination" : [ "obj-486", 1 ],
					"source" : [ "obj-405", 0 ]
				}

			}
, 			{
				"patchline" : 				{
					"destination" : [ "obj-561", 1 ],
					"source" : [ "obj-406", 0 ]
				}

			}
, 			{
				"patchline" : 				{
					"destination" : [ "obj-488", 0 ],
					"source" : [ "obj-437", 0 ]
				}

			}
, 			{
				"patchline" : 				{
					"destination" : [ "obj-1", 0 ],
					"source" : [ "obj-439", 0 ]
				}

			}
, 			{
				"patchline" : 				{
					"destination" : [ "obj-160", 0 ],
					"source" : [ "obj-439", 2 ]
				}

			}
, 			{
				"patchline" : 				{
					"destination" : [ "obj-161", 0 ],
					"source" : [ "obj-439", 3 ]
				}

			}
, 			{
				"patchline" : 				{
					"destination" : [ "obj-437", 0 ],
					"source" : [ "obj-439", 10 ]
				}

			}
, 			{
				"patchline" : 				{
					"destination" : [ "obj-443", 0 ],
					"source" : [ "obj-439", 11 ]
				}

			}
, 			{
				"patchline" : 				{
					"destination" : [ "obj-445", 0 ],
					"source" : [ "obj-439", 5 ]
				}

			}
, 			{
				"patchline" : 				{
					"destination" : [ "obj-453", 0 ],
					"source" : [ "obj-439", 1 ]
				}

			}
, 			{
				"patchline" : 				{
					"destination" : [ "obj-455", 0 ],
					"source" : [ "obj-439", 6 ]
				}

			}
, 			{
				"patchline" : 				{
					"destination" : [ "obj-457", 0 ],
					"source" : [ "obj-439", 4 ]
				}

			}
, 			{
				"patchline" : 				{
					"destination" : [ "obj-472", 0 ],
					"source" : [ "obj-439", 8 ]
				}

			}
, 			{
				"patchline" : 				{
					"destination" : [ "obj-548", 0 ],
					"source" : [ "obj-439", 9 ]
				}

			}
, 			{
				"patchline" : 				{
					"destination" : [ "obj-555", 0 ],
					"source" : [ "obj-439", 7 ]
				}

			}
, 			{
				"patchline" : 				{
					"destination" : [ "obj-567", 0 ],
					"source" : [ "obj-439", 12 ]
				}

			}
, 			{
				"patchline" : 				{
					"destination" : [ "obj-486", 0 ],
					"source" : [ "obj-443", 0 ]
				}

			}
, 			{
				"patchline" : 				{
					"destination" : [ "obj-484", 0 ],
					"source" : [ "obj-445", 0 ]
				}

			}
, 			{
				"patchline" : 				{
					"destination" : [ "obj-495", 0 ],
					"source" : [ "obj-453", 0 ]
				}

			}
, 			{
				"patchline" : 				{
					"destination" : [ "obj-497", 0 ],
					"source" : [ "obj-455", 0 ]
				}

			}
, 			{
				"patchline" : 				{
					"destination" : [ "obj-505", 0 ],
					"source" : [ "obj-457", 0 ]
				}

			}
, 			{
				"patchline" : 				{
					"destination" : [ "obj-478", 0 ],
					"source" : [ "obj-468", 0 ]
				}

			}
, 			{
				"patchline" : 				{
					"destination" : [ "obj-468", 0 ],
					"source" : [ "obj-472", 0 ]
				}

			}
, 			{
				"patchline" : 				{
					"destination" : [ "obj-14", 0 ],
					"source" : [ "obj-478", 0 ]
				}

			}
, 			{
				"patchline" : 				{
					"destination" : [ "obj-93", 0 ],
					"source" : [ "obj-484", 0 ]
				}

			}
, 			{
				"patchline" : 				{
					"destination" : [ "obj-325", 0 ],
					"source" : [ "obj-486", 0 ]
				}

			}
, 			{
				"patchline" : 				{
					"destination" : [ "obj-113", 0 ],
					"source" : [ "obj-488", 0 ]
				}

			}
, 			{
				"patchline" : 				{
					"destination" : [ "obj-114", 0 ],
					"source" : [ "obj-495", 0 ]
				}

			}
, 			{
				"patchline" : 				{
					"destination" : [ "obj-145", 0 ],
					"source" : [ "obj-497", 0 ]
				}

			}
, 			{
				"patchline" : 				{
					"destination" : [ "obj-75", 0 ],
					"source" : [ "obj-5", 0 ]
				}

			}
, 			{
				"patchline" : 				{
					"destination" : [ "obj-144", 0 ],
					"source" : [ "obj-505", 0 ]
				}

			}
, 			{
				"patchline" : 				{
					"destination" : [ "obj-124", 0 ],
					"source" : [ "obj-509", 0 ]
				}

			}
, 			{
				"patchline" : 				{
					"destination" : [ "obj-549", 0 ],
					"source" : [ "obj-546", 0 ]
				}

			}
, 			{
				"patchline" : 				{
					"destination" : [ "obj-546", 0 ],
					"source" : [ "obj-548", 0 ]
				}

			}
, 			{
				"patchline" : 				{
					"destination" : [ "obj-15", 0 ],
					"source" : [ "obj-549", 0 ]
				}

			}
, 			{
				"patchline" : 				{
					"destination" : [ "obj-556", 0 ],
					"source" : [ "obj-553", 0 ]
				}

			}
, 			{
				"patchline" : 				{
					"destination" : [ "obj-553", 0 ],
					"source" : [ "obj-555", 0 ]
				}

			}
, 			{
				"patchline" : 				{
					"destination" : [ "obj-28", 0 ],
					"source" : [ "obj-556", 0 ]
				}

			}
, 			{
				"patchline" : 				{
					"destination" : [ "obj-571", 0 ],
					"source" : [ "obj-561", 0 ]
				}

			}
, 			{
				"patchline" : 				{
					"destination" : [ "obj-561", 0 ],
					"source" : [ "obj-567", 0 ]
				}

			}
, 			{
				"patchline" : 				{
					"destination" : [ "obj-32", 0 ],
					"source" : [ "obj-571", 0 ]
				}

			}
, 			{
				"patchline" : 				{
					"destination" : [ "obj-439", 0 ],
					"source" : [ "obj-6", 0 ]
				}

			}
, 			{
				"patchline" : 				{
					"destination" : [ "obj-76", 0 ],
					"source" : [ "obj-75", 0 ]
				}

			}
, 			{
				"patchline" : 				{
					"destination" : [ "obj-79", 0 ],
					"source" : [ "obj-76", 0 ]
				}

			}
, 			{
				"patchline" : 				{
					"destination" : [ "obj-80", 0 ],
					"source" : [ "obj-76", 1 ]
				}

			}
, 			{
				"patchline" : 				{
					"destination" : [ "obj-259", 1 ],
					"source" : [ "obj-79", 1 ]
				}

			}
, 			{
				"patchline" : 				{
					"destination" : [ "obj-16", 1 ],
					"source" : [ "obj-8", 0 ]
				}

			}
, 			{
				"patchline" : 				{
					"destination" : [ "obj-259", 0 ],
					"source" : [ "obj-80", 0 ]
				}

			}
, 			{
				"patchline" : 				{
					"destination" : [ "obj-12", 0 ],
					"source" : [ "obj-93", 0 ]
				}

			}
 ],
		"styles" : [ 			{
				"name" : "Neudel_Dark_Mono",
				"default" : 				{
					"accentcolor" : [ 0.592156862745098, 0.592156862745098, 0.592156862745098, 1.0 ],
					"bgfillcolor" : 					{
						"angle" : 270.0,
						"autogradient" : 0.0,
						"color" : [ 0.482352941176471, 0.482352941176471, 0.482352941176471, 1.0 ],
						"color1" : [ 0.301961, 0.301961, 0.301961, 1.0 ],
						"color2" : [ 0.2, 0.2, 0.2, 1.0 ],
						"proportion" : 0.5,
						"type" : "color"
					}
,
					"clearcolor" : [ 1.0, 1.0, 1.0, 0.18 ],
					"color" : [ 0.682352941176471, 0.76078431372549, 0.768627450980392, 1.0 ],
					"editing_bgcolor" : [ 0.035294117647059, 0.015686274509804, 0.074509803921569, 1.0 ],
					"elementcolor" : [ 0.34902, 0.34902, 0.34902, 1.0 ],
					"fontname" : [ "Andale Mono" ],
					"fontsize" : [ 13.0 ],
					"locked_bgcolor" : [ 0.050980392156863, 0.058823529411765, 0.109803921568627, 1.0 ],
					"stripecolor" : [ 0.243137, 0.243137, 0.243137, 1.0 ],
					"textcolor" : [ 1.0, 1.0, 1.0, 1.0 ],
					"textcolor_inverse" : [ 0.980392156862745, 0.964705882352941, 0.964705882352941, 1.0 ],
					"textjustification" : [ 0 ]
				}
,
				"parentstyle" : "",
				"multi" : 0
			}
, 			{
				"name" : "Patcher blue",
				"default" : 				{
					"bgcolor" : [ 0.152941176470588, 0.188235294117647, 0.647058823529412, 1.0 ]
				}
,
				"parentstyle" : "",
				"multi" : 0
			}
, 			{
				"name" : "Receive",
				"default" : 				{
					"accentcolor" : [ 0.796078431372549, 0.192156862745098, 0.623529411764706, 1.0 ]
				}
,
				"parentstyle" : "Send",
				"multi" : 0
			}
, 			{
				"name" : "Send",
				"default" : 				{
					"accentcolor" : [ 0.152941176470588, 0.686274509803922, 0.701960784313725, 1.0 ]
				}
,
				"parentstyle" : "",
				"multi" : 0
			}
, 			{
				"name" : "message001",
				"parentstyle" : "",
				"multi" : 0
			}
 ]
	}

}
