{
	"patcher" : 	{
		"fileversion" : 1,
		"appversion" : 		{
			"major" : 8,
			"minor" : 5,
			"revision" : 4,
			"architecture" : "x64",
			"modernui" : 1
		}
,
		"classnamespace" : "box",
		"rect" : [ 214.0, 164.0, 570.0, 321.0 ],
		"bglocked" : 0,
		"openinpresentation" : 0,
		"default_fontsize" : 11.595186999999999,
		"default_fontface" : 0,
		"default_fontname" : "Lato",
		"gridonopen" : 1,
		"gridsize" : [ 15.0, 15.0 ],
		"gridsnaponopen" : 1,
		"objectsnaponopen" : 1,
		"statusbarvisible" : 2,
		"toolbarvisible" : 1,
		"lefttoolbarpinned" : 0,
		"toptoolbarpinned" : 0,
		"righttoolbarpinned" : 0,
		"bottomtoolbarpinned" : 0,
		"toolbars_unpinned_last_save" : 0,
		"tallnewobj" : 0,
		"boxanimatetime" : 200,
		"enablehscroll" : 1,
		"enablevscroll" : 1,
		"devicewidth" : 0.0,
		"description" : "",
		"digest" : "",
		"tags" : "",
		"style" : "",
		"subpatcher_template" : "",
		"assistshowspatchername" : 0,
		"boxes" : [ 			{
				"box" : 				{
					"fontname" : "Lato",
					"fontsize" : 13.0,
					"id" : "obj-14",
					"maxclass" : "comment",
					"numinlets" : 1,
					"numoutlets" : 0,
					"patching_rect" : [ 447.0, 13.0, 38.0, 22.0 ],
					"text" : "xoaz"
				}

			}
, 			{
				"box" : 				{
					"fontname" : "Lato",
					"fontsize" : 13.0,
					"id" : "obj-33",
					"linecount" : 4,
					"maxclass" : "comment",
					"numinlets" : 1,
					"numoutlets" : 0,
					"patching_rect" : [ 242.5, 125.0, 223.0, 69.0 ],
					"text" : "Messages sent from this abstraction cannot be received here. Messages received here cannot be sent from here. Thus stack overflow is avoided."
				}

			}
, 			{
				"box" : 				{
					"fontface" : 0,
					"fontname" : "Geneva",
					"fontsize" : 13.0,
					"id" : "obj-2",
					"maxclass" : "newobj",
					"numinlets" : 1,
					"numoutlets" : 3,
					"outlettype" : [ "int", "", "int" ],
					"patching_rect" : [ 61.0, 207.0, 86.0, 25.0 ],
					"text" : "t 1 l 0"
				}

			}
, 			{
				"box" : 				{
					"fontface" : 0,
					"fontname" : "Geneva",
					"fontsize" : 13.0,
					"id" : "obj-3",
					"maxclass" : "newobj",
					"numinlets" : 1,
					"numoutlets" : 3,
					"outlettype" : [ "int", "", "int" ],
					"patching_rect" : [ 169.5, 207.0, 86.0, 25.0 ],
					"text" : "t 1 l 0"
				}

			}
, 			{
				"box" : 				{
					"fontface" : 0,
					"fontname" : "Geneva",
					"fontsize" : 13.0,
					"id" : "obj-4",
					"maxclass" : "newobj",
					"numinlets" : 2,
					"numoutlets" : 1,
					"outlettype" : [ "" ],
					"patching_rect" : [ 160.0, 146.0, 74.0, 25.0 ],
					"text" : "gate 1 1"
				}

			}
, 			{
				"box" : 				{
					"fontface" : 0,
					"fontname" : "Geneva",
					"fontsize" : 13.0,
					"id" : "obj-9",
					"maxclass" : "newobj",
					"numinlets" : 2,
					"numoutlets" : 1,
					"outlettype" : [ "" ],
					"patching_rect" : [ 56.0, 146.0, 74.0, 25.0 ],
					"text" : "gate 1 1"
				}

			}
, 			{
				"box" : 				{
					"fontname" : "Geneva",
					"fontsize" : 13.0,
					"id" : "obj-10",
					"maxclass" : "newobj",
					"numinlets" : 0,
					"numoutlets" : 1,
					"outlettype" : [ "" ],
					"patching_rect" : [ 215.0, 53.0, 278.0, 25.0 ],
					"text" : "r #1"
				}

			}
, 			{
				"box" : 				{
					"fontname" : "Geneva",
					"fontsize" : 13.0,
					"id" : "obj-11",
					"maxclass" : "newobj",
					"numinlets" : 1,
					"numoutlets" : 0,
					"patching_rect" : [ 203.0, 245.0, 282.0, 25.0 ],
					"text" : "s #1"
				}

			}
, 			{
				"box" : 				{
					"comment" : "",
					"id" : "obj-12",
					"index" : 1,
					"maxclass" : "outlet",
					"numinlets" : 1,
					"numoutlets" : 0,
					"patching_rect" : [ 94.5, 252.0, 25.0, 25.0 ]
				}

			}
, 			{
				"box" : 				{
					"comment" : "",
					"id" : "obj-13",
					"index" : 1,
					"maxclass" : "inlet",
					"numinlets" : 0,
					"numoutlets" : 1,
					"outlettype" : [ "" ],
					"patching_rect" : [ 110.5, 28.0, 25.0, 25.0 ]
				}

			}
 ],
		"lines" : [ 			{
				"patchline" : 				{
					"color" : [ 1.0, 0.360784, 0.682353, 1.0 ],
					"destination" : [ "obj-4", 1 ],
					"source" : [ "obj-10", 0 ]
				}

			}
, 			{
				"patchline" : 				{
					"color" : [ 0.156863, 0.8, 0.54902, 1.0 ],
					"destination" : [ "obj-9", 1 ],
					"source" : [ "obj-13", 0 ]
				}

			}
, 			{
				"patchline" : 				{
					"color" : [ 1.0, 0.360784, 0.682353, 1.0 ],
					"destination" : [ "obj-12", 0 ],
					"source" : [ "obj-2", 1 ]
				}

			}
, 			{
				"patchline" : 				{
					"color" : [ 1.0, 0.360784, 0.682353, 1.0 ],
					"destination" : [ "obj-9", 0 ],
					"source" : [ "obj-2", 2 ]
				}

			}
, 			{
				"patchline" : 				{
					"color" : [ 1.0, 0.360784, 0.682353, 1.0 ],
					"destination" : [ "obj-9", 0 ],
					"midpoints" : [ 70.5, 242.0, 33.0, 242.0, 33.0, 135.0, 65.5, 135.0 ],
					"source" : [ "obj-2", 0 ]
				}

			}
, 			{
				"patchline" : 				{
					"color" : [ 0.156863, 0.8, 0.54902, 1.0 ],
					"destination" : [ "obj-11", 0 ],
					"source" : [ "obj-3", 1 ]
				}

			}
, 			{
				"patchline" : 				{
					"color" : [ 0.156863, 0.8, 0.54902, 1.0 ],
					"destination" : [ "obj-4", 0 ],
					"source" : [ "obj-3", 2 ]
				}

			}
, 			{
				"patchline" : 				{
					"color" : [ 0.156863, 0.8, 0.54902, 1.0 ],
					"destination" : [ "obj-4", 0 ],
					"midpoints" : [ 179.0, 242.0, 156.25, 242.0, 156.25, 135.0, 169.5, 135.0 ],
					"source" : [ "obj-3", 0 ]
				}

			}
, 			{
				"patchline" : 				{
					"color" : [ 1.0, 0.360784, 0.682353, 1.0 ],
					"destination" : [ "obj-2", 0 ],
					"source" : [ "obj-4", 0 ]
				}

			}
, 			{
				"patchline" : 				{
					"color" : [ 0.156863, 0.8, 0.54902, 1.0 ],
					"destination" : [ "obj-3", 0 ],
					"source" : [ "obj-9", 0 ]
				}

			}
 ],
		"styles" : [ 			{
				"name" : "AudioStatus_Menu",
				"default" : 				{
					"bgfillcolor" : 					{
						"angle" : 270.0,
						"autogradient" : 0,
						"color" : [ 0.294118, 0.313726, 0.337255, 1 ],
						"color1" : [ 0.454902, 0.462745, 0.482353, 0.0 ],
						"color2" : [ 0.290196, 0.309804, 0.301961, 1.0 ],
						"proportion" : 0.39,
						"type" : "color"
					}

				}
,
				"parentstyle" : "",
				"multi" : 0
			}
 ],
		"bgcolor" : [ 0.886275, 0.886275, 0.886275, 1.0 ]
	}

}
